<svg xmlns="http://www.w3.org/2000/svg" width="500" height="500" fill="none">
  <circle cx="250" cy="250" r="250" fill="#052B65"/>
  <path d="M250.002 282.258c-55.968 0-101.336 25.557-101.336 57.085 0 31.529 45.368 57.086 101.336 57.086 55.968 0 101.336-25.558 101.336-57.086 0-31.527-45.371-57.085-101.336-57.085Zm-51.731 64.419c-10.272 4.904-19.838 0-21.672-11.12-2.012-11.914 14.4-40.229 18.177-18.818 3.775 21.41 20.579-8.53 20.682 4.87-.562 10.817-7.168 20.455-17.187 25.068Zm125.128-11.12c-1.835 11.12-11.401 16.024-21.671 11.12-10.021-4.613-16.627-14.251-17.186-25.068.103-13.4 16.904 16.54 20.682-4.87 3.774-21.411 20.183 6.904 18.175 18.818Z" fill="#CAE9FF"/>
  <path d="M396.218 150.08c-2.906-20.328-73.192-5.83-82.326-4.295-.469.079-.907-.313-.811-.767.93-4.556 1.602-16.872-7.315-19.538-5.702-1.706-9.46 1.442-11.692 4.618-.999 1.424-3.988 7.583-5.845 11.859-1.001 2.308-3.331 5.682-5.894 5.621-10.747-3.273-21.541-4.909-32.333-4.909-10.794 0-21.588 1.636-32.335 4.909-2.563.061-4.896-3.313-5.897-5.621-1.856-4.276-4.846-10.435-5.845-11.859-2.229-3.176-5.988-6.324-11.69-4.618-8.917 2.666-8.246 14.982-7.315 19.538.094.454-.344.846-.811.767-9.134-1.535-79.419-16.033-82.328 4.295-2.759 19.282 22.167 45.873 48.248 57.823 2.518 1.154 4.52 3.104 6.96 4.401 4.104 2.186 6.553 7.64 5.952 12.561v71.006l9.523-5.344c14.514-8.134 29.665-11.94 41.328-14.199h.414a136.828 136.828 0 0 1 28.38-3.106h10.83a136.858 136.858 0 0 1 28.38 3.106h.411c11.666 2.259 26.814 6.065 41.333 14.199l9.523 5.344v-71.006c-.604-4.921 1.843-10.375 5.947-12.561 2.445-1.297 4.442-3.247 6.96-4.401 26.082-11.95 51.01-38.541 48.248-57.823Zm-153 72.796c-.402 2.107-5.545 5.986-18.296 9.201-8.929 2.197-18.219 3.016-27.409 2.461-2.16-.133-4.326-.485-6.33-1.284-3.657-1.455-6.747-3.958-9.047-7.256-3.103-4.307-4.582-9.103-3.635-14.287.923-5.19 3.988-9.204 8.412-12.21 3.314-2.332 7.092-3.65 11.038-3.794 2.16-.076 4.321.314 6.395.914 8.83 2.551 17.275 6.432 24.897 11.485 10.858 7.285 14.335 12.653 13.975 14.77Zm74.647 3.122c-2.297 3.298-5.389 5.801-9.047 7.256-2.002.799-4.169 1.151-6.327 1.284-9.19.555-18.483-.264-27.411-2.461-12.754-3.215-17.893-7.094-18.295-9.201-.36-2.117 3.115-7.485 13.976-14.77 7.621-5.053 16.065-8.934 24.897-11.485 2.073-.601 4.232-.99 6.395-.914 3.943.143 7.726 1.462 11.037 3.794 4.424 3.006 7.49 7.018 8.41 12.208.948 5.184-.532 9.982-3.635 14.289Z" fill="#CAE9FF"/>
</svg>