<svg xmlns="http://www.w3.org/2000/svg" width="600" height="600" fill="none">
  <script data-extension-id="dlcobpjiigpikoobohmabehhmhfoodbb"/>
  <script type="text/javascript"/>
  <g clip-path="url(#a)">
    <path d="M300 600c165.685 0 300-134.315 300-300S465.685 0 300 0 0 134.315 0 300s134.315 300 300 300Z" fill="url(#b)"/>
    <path d="M477.9 250.5h-35.6c-19.6-54.4-72.3-91.7-141.8-91.7H186.2v91.7h-39.7v32.9h39.7v34.5h-39.7v32.9h39.7v90.6h114.3c68.7 0 121-37 141.1-90.6h36.3v-32.9h-28.3c.7-5.8 1.1-11.8 1.1-17.8v-.8c0-5.4-.3-10.7-.8-15.9H478v-32.9h-.1Zm-259.7-62.4h82.3c51 0 88.9 25.1 106.4 62.3H218.2v-62.3Zm82.3 223.7h-82.3v-61.1h188.5c-17.6 36.6-55.4 61.1-106.2 61.1Zm117.1-111c0 5.8-.4 11.5-1.2 17H218.2v-34.5h198.3c.7 5.4 1.1 11 1.1 16.7v.8Z" fill="#fff"/>
  </g>
  <defs>
    <linearGradient id="b" x1="300" y1="-85" x2="300" y2="663" gradientUnits="userSpaceOnUse">
      <stop stop-color="#71BE17"/>
      <stop offset="1" stop-color="#8BC34A"/>
    </linearGradient>
    <clipPath id="a">
      <path fill="#fff" d="M0 0h600v600H0z"/>
    </clipPath>
  </defs>
  <script/>
</svg>