<svg width="777" height="54" viewBox="0 0 777 54" fill="none" xmlns="http://www.w3.org/2000/svg">
    <path d="M4.54395 23.2281C4.54395 23.2281 37.4703 23.2281 59.4211 19.5537C81.372 15.8794 92.3475 4.8562 114.298 4.8562C136.249 4.8562 147.225 17.7166 169.176 17.7166C191.126 17.7166 202.102 16.0631 224.053 14.9608C246.004 13.8584 256.979 12.205 278.93 12.205C300.881 12.205 311.856 36.0885 333.807 36.0885C355.758 36.0885 366.733 32.4141 388.684 27.8211C410.635 23.2281 421.611 13.1236 443.561 13.1236C465.512 13.1236 476.488 43.4373 498.439 43.4373C520.39 43.4373 531.365 32.4141 553.316 32.4141C575.267 32.4141 586.242 40.6815 608.193 40.6815C630.144 40.6815 641.119 21.3909 663.07 21.3909C685.021 21.3909 695.997 48.9488 717.947 48.9488C739.898 48.9488 772.825 7.61199 772.825 7.61199"
          stroke="#5BB7FF" stroke-width="2"/>
    <path d="M4.54385 27.4036C3.43663 27.4036 2.37475 26.9638 1.59173 26.181C0.808718 25.3981 0.368685 24.3364 0.368408 23.2292C0.368132 22.1219 0.807634 21.06 1.59026 20.2767C2.37288 19.4935 3.43454 19.0532 4.54176 19.0527C5.64897 19.0521 6.71107 19.4914 7.49448 20.2738C8.27789 21.0562 8.71845 22.1178 8.71928 23.225C8.72011 24.3322 8.28114 25.3944 7.49891 26.178C6.71668 26.9616 5.65524 27.4024 4.54802 27.4035L4.54385 27.4036Z"
          fill="#5BB7FF"/>
    <path d="M58.8246 23.2281C57.7174 23.2281 56.6555 22.7883 55.8725 22.0055C55.0895 21.2227 54.6494 20.1609 54.6492 19.0537C54.6489 17.9465 55.0884 16.8845 55.871 16.1013C56.6536 15.318 57.7153 14.8778 58.8225 14.8772C59.9297 14.8766 60.9918 15.3159 61.7752 16.0983C62.5587 16.8807 62.9992 17.9423 63 19.0495C63.0009 20.1567 62.5619 21.2189 61.7797 22.0025C60.9974 22.7861 59.936 23.227 58.8288 23.2281L58.8246 23.2281Z"
          fill="#5BB7FF"/>
    <path d="M114.149 8.61406C113.042 8.61406 111.98 8.17429 111.197 7.39147C110.414 6.60865 109.974 5.54688 109.974 4.43967C109.973 3.33245 110.413 2.27046 111.195 1.48725C111.978 0.704036 113.04 0.263738 114.147 0.263184C115.254 0.262631 116.316 0.701867 117.1 1.4843C117.883 2.26673 118.324 3.32828 118.325 4.43549C118.325 5.5427 117.886 6.60491 117.104 7.38852C116.322 8.17212 115.26 8.61295 114.153 8.61406L114.149 8.61406Z"
          fill="#5BB7FF"/>
    <path d="M168.43 22.1843C167.323 22.1843 166.261 21.7445 165.478 20.9617C164.695 20.1788 164.255 19.1171 164.254 18.0099C164.254 16.9026 164.694 15.8407 165.476 15.0574C166.259 14.2742 167.321 13.8339 168.428 13.8334C169.535 13.8328 170.597 14.2721 171.38 15.0545C172.164 15.8369 172.604 16.8985 172.605 18.0057C172.606 19.1129 172.167 20.1751 171.385 20.9587C170.603 21.7423 169.541 22.1831 168.434 22.1842L168.43 22.1843Z"
          fill="#5BB7FF"/>
    <path d="M223.754 19.0527C222.647 19.0527 221.585 18.6129 220.802 17.8301C220.019 17.0473 219.579 15.9855 219.579 14.8783C219.579 13.7711 220.018 12.7091 220.801 11.9258C221.583 11.1426 222.645 10.7023 223.752 10.7018C224.859 10.7012 225.922 11.1405 226.705 11.9229C227.488 12.7053 227.929 13.7669 227.93 14.8741C227.931 15.9813 227.492 17.0435 226.709 17.8271C225.927 18.6107 224.866 19.0515 223.758 19.0527L223.754 19.0527Z"
          fill="#5BB7FF"/>
    <path d="M278.035 15.9211C276.928 15.9211 275.866 15.4813 275.083 14.6985C274.3 13.9157 273.86 12.8539 273.86 11.7467C273.859 10.6395 274.299 9.57747 275.081 8.79426C275.864 8.01104 276.926 7.57074 278.033 7.57019C279.14 7.56964 280.202 8.00887 280.986 8.7913C281.769 9.57373 282.21 10.6353 282.21 11.7425C282.211 12.8497 281.772 13.9119 280.99 14.6955C280.208 15.4791 279.146 15.92 278.039 15.9211L278.035 15.9211Z"
          fill="#5BB7FF"/>
    <path d="M333.36 39.9299C332.252 39.9299 331.19 39.4901 330.407 38.7073C329.624 37.9244 329.184 36.8627 329.184 35.7555C329.184 34.6482 329.623 33.5863 330.406 32.803C331.189 32.0198 332.25 31.5795 333.357 31.579C334.465 31.5784 335.527 32.0177 336.31 32.8001C337.094 33.5825 337.534 34.6441 337.535 35.7513C337.536 36.8585 337.097 37.9207 336.315 38.7043C335.532 39.4879 334.471 39.9287 333.364 39.9299L333.36 39.9299Z"
          fill="#5BB7FF"/>
    <path d="M388.684 31.579C387.577 31.579 386.515 31.1392 385.732 30.3564C384.949 29.5736 384.509 28.5118 384.509 27.4046C384.509 26.2974 384.948 25.2354 385.731 24.4522C386.513 23.6689 387.575 23.2286 388.682 23.2281C389.789 23.2275 390.851 23.6668 391.635 24.4492C392.418 25.2316 392.859 26.2932 392.86 27.4004C392.86 28.5076 392.422 29.5698 391.639 30.3534C390.857 31.137 389.796 31.5779 388.688 31.579L388.684 31.579Z"
          fill="#5BB7FF"/>
    <path d="M442.965 16.965C441.858 16.965 440.796 16.5252 440.013 15.7424C439.23 14.9595 438.79 13.8978 438.79 12.7906C438.789 11.6833 439.229 10.6214 440.011 9.83814C440.794 9.05493 441.856 8.61463 442.963 8.61408C444.07 8.61352 445.132 9.05276 445.916 9.83519C446.699 10.6176 447.14 11.6792 447.14 12.7864C447.141 13.8936 446.702 14.9558 445.92 15.7394C445.138 16.523 444.076 16.9638 442.969 16.9649L442.965 16.965Z"
          fill="#5BB7FF"/>
    <path d="M498.289 47.2369C497.182 47.2369 496.12 46.7971 495.337 46.0143C494.554 45.2315 494.114 44.1697 494.114 43.0625C494.114 41.9553 494.553 40.8933 495.336 40.1101C496.118 39.3268 497.18 38.8865 498.287 38.886C499.395 38.8854 500.457 39.3247 501.24 40.1071C502.023 40.8895 502.464 41.9511 502.465 43.0583C502.466 44.1655 502.027 45.2277 501.245 46.0113C500.462 46.7949 499.401 47.2358 498.294 47.2369L498.289 47.2369Z"
          fill="#5BB7FF"/>
    <path d="M552.57 36.7983C551.463 36.7983 550.401 36.3585 549.618 35.5757C548.835 34.7929 548.395 33.7311 548.395 32.6239C548.394 31.5167 548.834 30.4547 549.617 29.6715C550.399 28.8882 551.461 28.4479 552.568 28.4474C553.675 28.4468 554.737 28.8861 555.521 29.6685C556.304 30.4509 556.745 31.5125 556.746 32.6197C556.746 33.7269 556.307 34.7891 555.525 35.5727C554.743 36.3563 553.682 36.7972 552.574 36.7983L552.57 36.7983Z"
          fill="#5BB7FF"/>
    <path d="M607.895 45.1492C606.787 45.1492 605.726 44.7094 604.943 43.9266C604.16 43.1437 603.72 42.082 603.719 40.9748C603.719 39.8675 604.158 38.8056 604.941 38.0223C605.724 37.2391 606.785 36.7988 607.893 36.7983C609 36.7977 610.062 37.237 610.845 38.0194C611.629 38.8018 612.069 39.8634 612.07 40.9706C612.071 42.0778 611.632 43.14 610.85 43.9236C610.067 44.7072 609.006 45.148 607.899 45.1492L607.895 45.1492Z"
          fill="#5BB7FF"/>
    <path d="M662.175 25.3158C661.068 25.3158 660.006 24.8761 659.223 24.0933C658.44 23.3104 658 22.2487 658 21.1414C658 20.0342 658.439 18.9722 659.222 18.189C660.004 17.4058 661.066 16.9655 662.173 16.965C663.281 16.9644 664.343 17.4036 665.126 18.1861C665.909 18.9685 666.35 20.0301 666.351 21.1373C666.352 22.2445 665.913 23.3067 665.13 24.0903C664.348 24.8739 663.287 25.3147 662.18 25.3158L662.175 25.3158Z"
          fill="#5BB7FF"/>
    <path d="M717.5 53.5C716.393 53.5 715.331 53.0603 714.548 52.2775C713.765 51.4946 713.325 50.4329 713.325 49.3257C713.324 48.2184 713.764 47.1564 714.546 46.3732C715.329 45.59 716.391 45.1497 717.498 45.1492C718.605 45.1486 719.667 45.5879 720.451 46.3703C721.234 47.1527 721.675 48.2143 721.675 49.3215C721.676 50.4287 721.237 51.4909 720.455 52.2745C719.673 53.0581 718.611 53.4989 717.504 53.5L717.5 53.5Z"
          fill="#5BB7FF"/>
    <path d="M772.825 11.7457C771.717 11.7457 770.656 11.3059 769.873 10.5231C769.089 9.74024 768.649 8.67847 768.649 7.57126C768.649 6.46404 769.088 5.40205 769.871 4.61884C770.654 3.83563 771.715 3.39533 772.823 3.39478C773.93 3.39422 774.992 3.83346 775.775 4.61589C776.559 5.39832 776.999 6.45987 777 7.56708C777.001 8.6743 776.562 9.73651 775.78 10.5201C774.997 11.3037 773.936 11.7445 772.829 11.7457L772.825 11.7457Z"
          fill="#5BB7FF"/>
</svg>
