<svg width="765" height="107" viewBox="0 0 765 107" fill="none" xmlns="http://www.w3.org/2000/svg">
<mask id="mask0_9_273" style="mask-type:alpha" maskUnits="userSpaceOnUse" x="0" y="0" width="765" height="107">
<path d="M16 0.5H749C757.56 0.5 764.5 7.43959 764.5 16V91C764.5 99.5604 757.56 106.5 749 106.5H16C7.43959 106.5 0.5 99.5604 0.5 91V16C0.5 7.43959 7.43959 0.5 16 0.5Z" fill="url(#paint0_linear_9_273)" stroke="#142E6F"/>
</mask>
<g mask="url(#mask0_9_273)">
<path d="M16 0.5H749C757.56 0.5 764.5 7.43959 764.5 16V91C764.5 99.5604 757.56 106.5 749 106.5H16C7.43959 106.5 0.5 99.5604 0.5 91V16C0.5 7.43959 7.43959 0.5 16 0.5Z" fill="url(#paint1_linear_9_273)" stroke="#142E6F"/>
<g opacity="0.25">
<path d="M-10.4561 73.2281C-10.4561 73.2281 22.4703 73.2281 44.4211 69.5537C66.372 65.8793 77.3475 54.8561 99.2983 54.8561C121.249 54.8561 132.225 67.7165 154.176 67.7165C176.126 67.7165 187.102 66.063 209.053 64.9607C231.004 63.8584 241.979 62.2049 263.93 62.2049C285.881 62.2049 296.856 86.0884 318.807 86.0884C340.758 86.0884 351.733 82.414 373.684 77.8211C395.635 73.2281 406.611 63.1235 428.561 63.1235C450.512 63.1235 461.488 93.4372 483.439 93.4372C505.39 93.4372 516.365 82.414 538.316 82.414C560.267 82.414 571.242 90.6814 593.193 90.6814C615.144 90.6814 626.119 71.3909 648.07 71.3909C670.021 71.3909 680.997 98.9488 702.947 98.9488C724.898 98.9488 757.825 57.6119 757.825 57.6119" stroke="#A28AF0" stroke-width="2"/>
<path d="M43.8246 73.2281C42.7174 73.2281 41.6555 72.7883 40.8725 72.0055C40.0895 71.2227 39.6494 70.1609 39.6492 69.0537C39.6489 67.9465 40.0884 66.8845 40.871 66.1013C41.6536 65.318 42.7153 64.8778 43.8225 64.8772C44.9297 64.8766 45.9918 65.3159 46.7752 66.0983C47.5587 66.8807 47.9992 67.9423 48 69.0495C48.0009 70.1567 47.5619 71.2189 46.7797 72.0025C45.9974 72.7861 44.936 73.227 43.8288 73.2281L43.8246 73.2281Z" fill="#A28AF0"/>
<path d="M99.1491 58.6141C98.0419 58.6141 96.98 58.1743 96.197 57.3915C95.4139 56.6087 94.9739 55.5469 94.9736 54.4397C94.9734 53.3325 95.4129 52.2705 96.1955 51.4872C96.9781 50.704 98.0398 50.2637 99.147 50.2632C100.254 50.2626 101.316 50.7019 102.1 51.4843C102.883 52.2667 103.324 53.3283 103.325 54.4355C103.325 55.5427 102.886 56.6049 102.104 57.3885C101.322 58.1721 100.26 58.613 99.1532 58.6141L99.1491 58.6141Z" fill="#A28AF0"/>
<path d="M153.43 72.1842C152.323 72.1842 151.261 71.7444 150.478 70.9616C149.695 70.1788 149.255 69.117 149.254 68.0098C149.254 66.9026 149.694 65.8406 150.476 65.0574C151.259 64.2742 152.321 63.8339 153.428 63.8333C154.535 63.8328 155.597 64.272 156.38 65.0544C157.164 65.8369 157.604 66.8984 157.605 68.0056C157.606 69.1128 157.167 70.175 156.385 70.9586C155.603 71.7423 154.541 72.1831 153.434 72.1842L153.43 72.1842Z" fill="#A28AF0"/>
<path d="M208.755 69.0527C207.647 69.0527 206.585 68.6129 205.802 67.8301C205.019 67.0473 204.579 65.9855 204.579 64.8783C204.579 63.7711 205.018 62.7091 205.801 61.9258C206.584 61.1426 207.645 60.7023 208.752 60.7018C209.86 60.7012 210.922 61.1405 211.705 61.9229C212.489 62.7053 212.929 63.7669 212.93 64.8741C212.931 65.9813 212.492 67.0435 211.71 67.8271C210.927 68.6107 209.866 69.0516 208.759 69.0527L208.755 69.0527Z" fill="#A28AF0"/>
<path d="M263.035 65.9211C261.928 65.9211 260.866 65.4813 260.083 64.6985C259.3 63.9157 258.86 62.8539 258.86 61.7467C258.859 60.6395 259.299 59.5775 260.081 58.7943C260.864 58.011 261.926 57.5707 263.033 57.5702C264.14 57.5696 265.202 58.0089 265.986 58.7913C266.769 59.5737 267.21 60.6353 267.21 61.7425C267.211 62.8497 266.772 63.9119 265.99 64.6955C265.208 65.4791 264.146 65.92 263.039 65.9211L263.035 65.9211Z" fill="#A28AF0"/>
<path d="M318.36 89.9299C317.253 89.9299 316.191 89.4901 315.408 88.7073C314.625 87.9244 314.185 86.8627 314.184 85.7555C314.184 84.6482 314.624 83.5863 315.406 82.803C316.189 82.0198 317.25 81.5795 318.358 81.579C319.465 81.5784 320.527 82.0177 321.31 82.8001C322.094 83.5825 322.534 84.6441 322.535 85.7513C322.536 86.8585 322.097 87.9207 321.315 88.7043C320.533 89.4879 319.471 89.9287 318.364 89.9299L318.36 89.9299Z" fill="#A28AF0"/>
<path d="M373.684 81.579C372.577 81.579 371.515 81.1392 370.732 80.3564C369.949 79.5736 369.509 78.5118 369.509 77.4046C369.509 76.2974 369.948 75.2354 370.731 74.4522C371.513 73.6689 372.575 73.2286 373.682 73.2281C374.789 73.2275 375.851 73.6668 376.635 74.4492C377.418 75.2316 377.859 76.2932 377.86 77.4004C377.86 78.5076 377.422 79.5698 376.639 80.3534C375.857 81.137 374.796 81.5779 373.688 81.579L373.684 81.579Z" fill="#A28AF0"/>
<path d="M427.965 66.9649C426.858 66.9649 425.796 66.5251 425.013 65.7423C424.23 64.9595 423.79 63.8977 423.79 62.7905C423.789 61.6833 424.229 60.6213 425.011 59.8381C425.794 59.0549 426.856 58.6146 427.963 58.614C429.07 58.6135 430.132 59.0527 430.916 59.8351C431.699 60.6176 432.14 61.6791 432.14 62.7863C432.141 63.8935 431.702 64.9557 430.92 65.7393C430.138 66.523 429.076 66.9638 427.969 66.9649L427.965 66.9649Z" fill="#A28AF0"/>
<path d="M483.289 97.2369C482.182 97.2369 481.12 96.7971 480.337 96.0143C479.554 95.2315 479.114 94.1697 479.114 93.0625C479.114 91.9553 479.553 90.8933 480.336 90.1101C481.118 89.3268 482.18 88.8865 483.287 88.886C484.395 88.8854 485.457 89.3247 486.24 90.1071C487.023 90.8895 487.464 91.9511 487.465 93.0583C487.466 94.1655 487.027 95.2277 486.245 96.0113C485.462 96.7949 484.401 97.2358 483.294 97.2369L483.289 97.2369Z" fill="#A28AF0"/>
<path d="M537.57 86.7983C536.463 86.7983 535.401 86.3585 534.618 85.5757C533.835 84.7929 533.395 83.7311 533.395 82.6239C533.394 81.5167 533.834 80.4547 534.617 79.6715C535.399 78.8882 536.461 78.4479 537.568 78.4474C538.675 78.4468 539.737 78.8861 540.521 79.6685C541.304 80.4509 541.745 81.5125 541.746 82.6197C541.746 83.7269 541.307 84.7891 540.525 85.5727C539.743 86.3563 538.682 86.7972 537.574 86.7983L537.57 86.7983Z" fill="#A28AF0"/>
<path d="M592.895 95.1491C591.787 95.1491 590.726 94.7093 589.943 93.9265C589.16 93.1437 588.72 92.0819 588.719 90.9747C588.719 89.8675 589.158 88.8055 589.941 88.0223C590.724 87.2391 591.785 86.7988 592.893 86.7982C594 86.7977 595.062 87.2369 595.845 88.0193C596.629 88.8018 597.069 89.8633 597.07 90.9705C597.071 92.0777 596.632 93.1399 595.85 93.9236C595.067 94.7072 594.006 95.148 592.899 95.1491L592.895 95.1491Z" fill="#A28AF0"/>
<path d="M647.175 75.3158C646.068 75.3158 645.006 74.876 644.223 74.0932C643.44 73.3104 643 72.2486 643 71.1414C643 70.0342 643.439 68.9722 644.222 68.189C645.004 67.4058 646.066 66.9655 647.173 66.9649C648.281 66.9644 649.343 67.4036 650.126 68.186C650.909 68.9684 651.35 70.03 651.351 71.1372C651.352 72.2444 650.913 73.3066 650.13 74.0902C649.348 74.8738 648.287 75.3147 647.18 75.3158L647.175 75.3158Z" fill="#A28AF0"/>
<path d="M702.5 103.5C701.393 103.5 700.331 103.06 699.548 102.277C698.765 101.495 698.325 100.433 698.325 99.3256C698.324 98.2184 698.764 97.1564 699.547 96.3732C700.329 95.59 701.391 95.1497 702.498 95.1491C703.605 95.1486 704.667 95.5878 705.451 96.3702C706.234 97.1527 706.675 98.2142 706.676 99.3214C706.676 100.429 706.237 101.491 705.455 102.274C704.673 103.058 703.612 103.499 702.504 103.5L702.5 103.5Z" fill="#A28AF0"/>
<path d="M757.825 61.7456C756.717 61.7456 755.656 61.3058 754.873 60.523C754.089 59.7402 753.649 58.6784 753.649 57.5712C753.649 56.464 754.088 55.402 754.871 54.6188C755.654 53.8356 756.715 53.3953 757.823 53.3947C758.93 53.3942 759.992 53.8334 760.775 54.6158C761.559 55.3983 761.999 56.4598 762 57.567C762.001 58.6742 761.562 59.7364 760.78 60.52C759.997 61.3037 758.936 61.7445 757.829 61.7456L757.825 61.7456Z" fill="#A28AF0"/>
</g>
</g>
<defs>
<linearGradient id="paint0_linear_9_273" x1="382.5" y1="0" x2="382.5" y2="107" gradientUnits="userSpaceOnUse">
<stop stop-color="#5D32ED" stop-opacity="0.5"/>
<stop offset="1" stop-color="#625394" stop-opacity="0.5"/>
</linearGradient>
<linearGradient id="paint1_linear_9_273" x1="382.5" y1="0" x2="382.5" y2="107" gradientUnits="userSpaceOnUse">
<stop stop-color="#5D32ED" stop-opacity="0.5"/>
<stop offset="1" stop-color="#625394" stop-opacity="0.5"/>
</linearGradient>
</defs>
</svg>
