<svg width="139" height="36" viewBox="0 0 139 36" fill="none" xmlns="http://www.w3.org/2000/svg">
<path fill-rule="evenodd" clip-rule="evenodd" d="M3.59998 23.007V18C3.59998 10.0471 10.0471 3.60001 18 3.60001C21.9227 3.60001 25.4791 5.16854 28.0762 7.71263L25.0149 9.62549C23.1171 8.03411 20.6705 7.07586 18 7.07586C11.9667 7.07586 7.07583 11.9668 7.07583 18H10.5517L3.59998 23.007ZM10.9324 26.33C12.8375 27.948 15.3048 28.9242 18.0001 28.9242C24.0334 28.9242 28.9243 24.0333 28.9243 18H25.4484L32.3998 12.9104L32.4001 18C32.4001 25.9529 25.953 32.4 18.0001 32.4C14.0531 32.4 10.4769 30.812 7.87575 28.2399L10.9324 26.33ZM23.5241 22.7793H19.5517L18.0001 20.6834L16.4486 22.7793H12.4762L16.0749 18.0826L12.4758 13.2208H16.2L18.0001 15.5701L19.8003 13.2208H23.5244L19.9254 18.0826L23.5241 22.7793Z" fill="white"/>
<path d="M56.1847 27.5214C54.3196 27.5214 52.7141 27.3155 51.3684 26.9036C50.0305 26.4835 48.9759 25.8699 48.2047 25.0626C47.4334 24.2554 46.9731 23.2751 46.8235 22.1219L46.7999 21.9613H50.5893L50.6129 22.0848C50.7467 22.6038 51.0457 23.0445 51.51 23.4069C51.9822 23.7611 52.6157 24.033 53.4106 24.2224C54.2133 24.4036 55.1813 24.4942 56.3146 24.4942C57.2747 24.4942 58.0932 24.3995 58.77 24.2101C59.4546 24.0124 59.978 23.7282 60.34 23.3575C60.7099 22.9868 60.8948 22.5503 60.8948 22.0478V22.0354C60.8948 21.3847 60.643 20.9028 60.1393 20.5898C59.6356 20.2685 58.766 20.0338 57.5305 19.8855L53.3752 19.5272C51.2975 19.313 49.7511 18.7941 48.7359 17.9703C47.7207 17.1466 47.2131 16.0016 47.2131 14.5354V14.5231C47.2131 13.3863 47.5476 12.4061 48.2165 11.5824C48.8933 10.7586 49.8534 10.1244 51.0969 9.67957C52.3403 9.22652 53.8159 9 55.5236 9C57.2708 9 58.7778 9.21005 60.0449 9.63015C61.3119 10.0502 62.3114 10.6639 63.0433 11.4712C63.7831 12.2702 64.2316 13.2339 64.389 14.3624L64.4126 14.5478H60.6351L60.5997 14.4242C60.458 13.8888 60.1787 13.444 59.7616 13.0898C59.3523 12.7356 58.7936 12.472 58.0853 12.299C57.3849 12.1178 56.531 12.0272 55.5236 12.0272C54.5714 12.0272 53.7647 12.1219 53.1037 12.3114C52.4505 12.4926 51.9547 12.7562 51.6163 13.1021C51.2779 13.4399 51.1087 13.8435 51.1087 14.313V14.3254C51.1087 14.9349 51.3644 15.4003 51.876 15.7216C52.3954 16.0428 53.2375 16.2694 54.4022 16.4012L58.6047 16.7595C60.0213 16.916 61.1821 17.196 62.0871 17.5997C63 18.0033 63.6768 18.5511 64.1175 19.243C64.5661 19.9267 64.7904 20.7669 64.7904 21.7636V21.776C64.7904 22.9786 64.452 24.0124 63.7752 24.8773C63.0984 25.7339 62.1186 26.3888 60.8358 26.8419C59.553 27.2949 58.0027 27.5214 56.1847 27.5214Z" fill="white"/>
<path d="M70.1913 27.1755L65.552 14.0041H69.3532L72.328 23.654H72.3988L75.8104 14.0041H79.3282L82.7516 23.654H82.8106L85.7854 14.0041H89.5629L84.9355 27.1755H80.9454L77.5929 17.9209H77.5221L74.1813 27.1755H70.1913Z" fill="white"/>
<path d="M95.3534 27.3979C94.2359 27.3979 93.26 27.2414 92.4258 26.9283C91.5995 26.6071 90.9581 26.1417 90.5016 25.5321C90.0452 24.9143 89.817 24.1689 89.817 23.2957V23.271C89.817 22.5049 90.0058 21.8377 90.3836 21.2694C90.7613 20.701 91.3555 20.2521 92.1661 19.9226C92.9767 19.5931 94.0313 19.416 95.3298 19.3913L102.099 19.2306V21.3682L95.9082 21.5288C95.074 21.5535 94.4641 21.7018 94.0785 21.9736C93.7007 22.2372 93.5119 22.6038 93.5119 23.0733V23.0857C93.5119 23.6788 93.7755 24.1194 94.3028 24.4077C94.8379 24.6961 95.5383 24.8402 96.404 24.8402C97.2618 24.8402 98.0055 24.7166 98.6351 24.4695C99.2647 24.2224 99.7526 23.8764 100.099 23.4316C100.453 22.9868 100.63 22.4638 100.63 21.8624V18.9094C100.63 18.1186 100.339 17.5091 99.7566 17.0807C99.1821 16.6442 98.3597 16.4259 97.2894 16.4259C96.345 16.4259 95.5934 16.5865 95.0347 16.9077C94.4838 17.2208 94.1336 17.645 93.9841 18.1804L93.9604 18.2916H90.4072L90.4308 18.1433C90.5725 17.2784 90.9305 16.5124 91.505 15.8451C92.0795 15.1779 92.8547 14.6549 93.8306 14.2759C94.8143 13.8888 95.9869 13.6952 97.3484 13.6952C98.8201 13.6952 100.079 13.9012 101.126 14.313C102.18 14.7249 102.987 15.3138 103.546 16.0799C104.105 16.846 104.384 17.7603 104.384 18.8229V27.1755H100.63V24.9638H100.559C100.268 25.4662 99.8668 25.8987 99.3552 26.2611C98.8437 26.6236 98.2456 26.9036 97.5609 27.1013C96.8841 27.299 96.1483 27.3979 95.3534 27.3979Z" fill="white"/>
<path d="M106.468 31.5V14.0165H110.234V16.4629H110.293C110.615 15.911 111.036 15.4292 111.556 15.0173C112.083 14.6054 112.701 14.2842 113.409 14.0535C114.117 13.8229 114.912 13.7076 115.794 13.7076C117.163 13.7076 118.351 13.9959 119.359 14.5725C120.366 15.1491 121.145 15.9522 121.696 16.9819C122.247 18.0115 122.522 19.2142 122.522 20.5898V20.6021C122.522 21.9695 122.247 23.1722 121.696 24.2101C121.145 25.2397 120.366 26.0428 119.359 26.6194C118.351 27.1961 117.167 27.4844 115.805 27.4844C114.924 27.4844 114.125 27.3732 113.409 27.1507C112.701 26.9201 112.083 26.5989 111.556 26.187C111.036 25.7751 110.615 25.2974 110.293 24.7537H110.234V31.5H106.468ZM114.495 24.5807C115.369 24.5807 116.12 24.4201 116.75 24.0989C117.379 23.7776 117.859 23.3204 118.19 22.7274C118.528 22.1343 118.698 21.4259 118.698 20.6021V20.5774C118.698 19.7537 118.528 19.0453 118.19 18.4522C117.859 17.8591 117.379 17.4061 116.75 17.0931C116.12 16.7718 115.369 16.6112 114.495 16.6112C113.637 16.6112 112.886 16.776 112.24 17.1054C111.603 17.4267 111.107 17.888 110.753 18.4893C110.399 19.0824 110.222 19.7825 110.222 20.5898V20.6021C110.222 21.4094 110.399 22.1137 110.753 22.715C111.107 23.3081 111.603 23.7694 112.24 24.0989C112.878 24.4201 113.629 24.5807 114.495 24.5807Z" fill="white"/>
<path d="M124.122 27.1755V14.0165L127.888 14.0288V16.6853H127.959C128.218 15.7545 128.694 15.0338 129.387 14.5231C130.08 14.0041 130.933 13.7446 131.949 13.7446C132.185 13.7446 132.409 13.7611 132.622 13.7941C132.842 13.8188 133.035 13.8517 133.2 13.8929V17.0807C132.995 17.0313 132.759 16.9942 132.492 16.9695C132.232 16.9448 131.964 16.9325 131.689 16.9325C130.918 16.9325 130.245 17.0807 129.67 17.3773C129.104 17.6738 128.663 18.1186 128.348 18.7117C128.041 19.2965 127.888 20.0255 127.888 20.8987V27.1755H124.122Z" fill="white"/>
</svg>
