<svg width="18" height="18" viewBox="0 0 18 18" fill="currentColor" xmlns="http://www.w3.org/2000/svg">
    <path d="M13.1457 6C13.8727 6 14.5245 6.15441 15.1011 6.46324C15.6902 6.76062 16.1539 7.17239 16.4924 7.69853C16.8308 8.22467 17 8.81944 17 9.48284C17 10.1462 16.8308 10.7467 16.4924 11.2843C16.1539 11.8219 15.6902 12.2451 15.1011 12.5539C14.5245 12.8513 13.8727 13 13.1457 13C12.168 13 11.3596 12.817 10.7203 12.451C10.0936 12.0735 9.52331 11.5531 9.0094 10.8897C8.4955 11.5531 7.92519 12.0735 7.29847 12.451C6.67176 12.817 5.8633 13 4.87309 13C4.1461 13 3.48805 12.8513 2.89894 12.5539C2.30983 12.2451 1.84606 11.8276 1.50764 11.3015C1.16921 10.7639 1 10.1634 1 9.5C1 8.8366 1.16921 8.24183 1.50764 7.71569C1.84606 7.1781 2.30983 6.76062 2.89894 6.46324C3.48805 6.15441 4.1461 6 4.87309 6C5.8633 6 6.67176 6.18873 7.29847 6.56618C7.92519 6.93219 8.4955 7.4469 9.0094 8.11029C9.52331 7.4469 10.0936 6.93219 10.7203 6.56618C11.3596 6.18873 12.168 6 13.1457 6ZM5.0423 11.4044C5.70662 11.4044 6.25813 11.2443 6.69683 10.924C7.14806 10.5923 7.59303 10.1176 8.03173 9.5C7.59303 8.88235 7.14806 8.4134 6.69683 8.09314C6.25813 7.76144 5.70662 7.59559 5.0423 7.59559C4.41559 7.59559 3.89542 7.77859 3.48179 8.14461C3.08069 8.49918 2.88014 8.95098 2.88014 9.5C2.88014 10.049 3.08069 10.5065 3.48179 10.8725C3.89542 11.2271 4.41559 11.4044 5.0423 11.4044ZM12.9577 11.4044C13.5719 11.4044 14.0858 11.2214 14.4994 10.8554C14.913 10.4894 15.1199 10.0319 15.1199 9.48284C15.1199 8.94526 14.913 8.49918 14.4994 8.14461C14.0858 7.77859 13.5719 7.59559 12.9577 7.59559C12.2934 7.59559 11.7356 7.76144 11.2844 8.09314C10.8457 8.4134 10.4132 8.88235 9.98707 9.5C10.4132 10.1176 10.8457 10.5923 11.2844 10.924C11.7356 11.2443 12.2934 11.4044 12.9577 11.4044Z"
          fill="black"/>
</svg>