<svg width="992" height="226" viewBox="0 0 992 226" fill="none" xmlns="http://www.w3.org/2000/svg">
<path fill-rule="evenodd" clip-rule="evenodd" d="M0 203.026L93.9173 15.33V142.129L0 203.026Z" fill="#EF359E"/>
<path fill-rule="evenodd" clip-rule="evenodd" d="M97.0462 146.508L3.12897 207.405H190.963L97.0462 146.508Z" fill="#2797FF"/>
<path fill-rule="evenodd" clip-rule="evenodd" d="M100.174 15.33L194.091 203.026L100.174 142.129V15.33Z" fill="#0EFBDF"/>
<path d="M244.929 171H266.328L275.998 141.437H318.558L328.228 171H349.706L308.81 56.6331H285.825L244.929 171ZM297.08 77.002H297.555L313.407 125.665H281.149L297.08 77.002ZM365.158 171H437.519V153.801H385.606V56.6331H365.158V171ZM500.921 172.981C532.227 172.981 550.773 154.356 550.773 123.288V110.924H502.427V126.854H530.8L530.721 128.598C530.325 144.608 518.436 155.228 501.159 155.228C480.552 155.228 467.633 139.456 467.633 113.222V113.143C467.633 87.4638 479.997 72.4051 500.604 72.4051C514.632 72.4051 524.539 79.5382 528.898 91.8229L529.136 92.6947H549.901L549.584 91.4266C545.225 70.3445 527.63 54.6517 500.524 54.6517C467.554 54.6517 446.789 77.002 446.789 113.301V113.381C446.789 150.314 467.554 172.981 500.921 172.981ZM570.742 171H644.768V153.801H591.191V121.227H641.835V104.662H591.191V73.8317H644.768V56.6331H570.742V171ZM665.768 171H713.718C738.129 171 752.95 158.636 752.95 138.663V138.505C752.95 123.446 742.012 112.192 725.923 110.765V110.369C738.208 108.705 747.481 97.6879 747.481 85.4032V85.2447C747.481 67.8875 734.087 56.6331 713.242 56.6331H665.768V171ZM708.09 72.5636C720.217 72.5636 727.27 78.1116 727.27 88.0186V88.1771C727.27 98.956 719.345 104.979 704.603 104.979H686.216V72.5636H708.09ZM707.853 119.8C723.862 119.8 732.105 125.824 732.105 137.316V137.475C732.105 148.967 724.021 155.069 709.042 155.069H686.216V119.8H707.853ZM770.779 171H791.227V128.202H813.34L835.848 171H859.15L834.184 125.111C847.499 120.276 855.742 107.833 855.742 92.457V92.2985C855.742 70.186 840.842 56.6331 816.431 56.6331H770.779V171ZM791.227 112.033V73.1977H813.894C826.734 73.1977 834.818 80.4893 834.818 92.457V92.6155C834.818 104.9 827.21 112.033 814.291 112.033H791.227ZM867.548 171H888.947L898.616 141.437H941.177L950.846 171H972.325L931.428 56.6331H908.444L867.548 171ZM919.698 77.002H920.174L936.025 125.665H903.768L919.698 77.002Z" fill="#2797FF"/>
</svg>
