<svg width="298" height="106" viewBox="0 0 298 106" fill="none" xmlns="http://www.w3.org/2000/svg">
    <path d="M7.48967 10.647C10.7379 7.23874 15.1597 4.86392 20.0794 3.88544L37.1113 0.497952C41.4634 -0.367636 46.0061 -0.100606 50.19 1.26675L61.8518 5.07793C66.531 6.60713 71.6449 6.75591 76.4277 5.50201L92.5638 1.27167C97.3429 0.0187599 102.492 1.62009 105.33 5.24162C108.089 8.76273 113.044 10.3845 117.733 9.30094L140.733 3.98579C145.108 2.97468 149.723 3.12129 154.005 4.4074L179.506 12.0668C181.439 12.6474 183.45 12.9989 185.487 13.1121L215.57 14.7833C219.124 14.9807 222.682 14.449 225.965 13.2297L250.736 4.02949C253.568 2.97753 256.609 2.43567 259.682 2.43567H261.908C268.474 2.43567 274.73 4.90633 279.109 9.22938L281.93 12.014C283.983 14.0399 285.556 16.4079 286.558 18.9788L297.874 48.0189C298.146 48.7179 297.97 49.4924 297.412 50.0433L292.742 54.6553C292.535 54.8596 292.377 55.0987 292.277 55.3582L285.709 72.4049C285.55 72.8178 284.867 72.7517 284.813 72.3181L281.993 49.7056C281.947 49.3436 281.785 49.0007 281.525 48.718L273.077 39.5301C272.093 38.4609 270.431 38.0908 268.992 38.6206C267.911 39.0186 267.125 39.8654 266.895 40.8798L257.531 82.1608C257.375 82.848 256.256 82.8298 256.129 82.138L252.402 61.8638C251.749 58.3088 245.944 58.3544 245.362 61.9191C245.313 62.2148 244.87 62.2902 244.701 62.0314L233.09 44.2495C231.115 41.224 226.007 41.7333 224.845 45.0719C224.727 45.4098 224.66 45.7601 224.647 46.1135L223.495 76.3817C223.477 76.8454 222.737 76.9275 222.59 76.482L215.765 55.7577C214.211 51.0367 210.779 46.9707 206.101 44.3079L202.857 42.4617C201.993 41.9693 200.849 42.1151 200.177 42.8034C197.625 45.4174 195.965 48.6178 195.39 52.0326L189.593 86.4738C189.582 86.5423 189.53 86.6003 189.457 86.626C188.081 87.1125 186.564 86.2845 186.441 84.9791L183.272 51.4721C183.242 51.1556 183.108 50.8538 182.886 50.6038L175.063 41.781C168.948 34.8846 156.55 37.098 153.945 45.5511L153.677 46.4217C153.616 46.62 153.365 46.7193 153.157 46.6273C151.014 45.6809 148.435 46.7634 147.912 48.8288L133.841 104.405C133.311 106.498 129.955 106.544 129.351 104.467L124.139 86.5197C122.579 81.1515 118.616 76.5749 113.158 73.8425L105.107 69.8112C104.642 69.5784 104.296 69.1973 104.139 68.7459L96.7478 47.5222C95.4032 43.661 89.8707 42.4802 86.6797 45.3733L82.7878 48.9019C81.685 49.9018 79.7884 49.6035 79.1439 48.3288L79.1 48.2421C78.5582 47.1705 77.0557 46.7869 75.9505 47.438C75.0001 47.9978 73.7198 47.8017 73.0382 46.9917L63.8711 36.0986C62.8501 34.8853 60.6712 35.4614 60.5722 36.9707L60.2455 41.9478C59.9532 46.4008 53.4242 46.4549 53.0581 42.0074V42.0074C52.5555 35.9008 45.0211 32.342 38.9952 35.3649C35.9708 36.8821 34.1368 39.7468 34.2232 42.8189L35.0064 70.6727L29.07 35.6416C28.7411 33.7004 27.3135 32.0417 25.2843 31.243C20.9099 29.5213 16.0009 32.4256 16.1364 36.6552L16.3824 44.3371C16.4188 45.4713 14.6836 45.854 14.1124 44.8378L0.240978 20.1576C-0.167918 19.43 -0.0493727 18.5575 0.542781 17.9362L7.48967 10.647Z"
          fill="#98C4E7"/>
    <path d="M7.48969 10.647C10.7379 7.23874 15.1597 4.86392 20.0794 3.88544L37.1113 0.497952C41.4634 -0.367636 46.0061 -0.100606 50.1901 1.26675L61.8518 5.07793C66.531 6.60713 71.6449 6.75591 76.4278 5.502L92.5638 1.27167C97.3429 0.0187599 102.492 1.62009 105.33 5.24162C108.089 8.76273 113.044 10.3845 117.733 9.30094L140.733 3.98579C145.108 2.97468 149.723 3.12129 154.005 4.4074L179.506 12.0668C181.439 12.6474 183.45 12.9989 185.488 13.1121L215.57 14.7833C219.124 14.9807 222.682 14.449 225.965 13.2297L250.736 4.02949C253.568 2.97753 256.609 2.43567 259.682 2.43567H261.908C268.474 2.43567 274.73 4.90633 279.109 9.22938L281.931 12.014C283.983 14.0399 285.556 16.4079 286.558 18.9788L297.874 48.0189C298.147 48.7179 297.97 49.4924 297.412 50.0433L293.051 54.35C292.691 54.7053 292.094 54.78 291.637 54.5269C286.326 51.5877 279.316 53.1211 276.17 57.9101L276.044 58.1024C275.506 58.9211 274.102 58.6835 273.944 57.7473L271.93 45.7711C271.327 42.1865 266.649 40.4317 263.311 42.5381C261.814 43.483 259.881 43.7022 258.162 43.1218L246.771 39.2753C244.14 38.3867 241.347 37.9312 238.529 37.9312H236.604C227.164 37.9312 218.674 43.0097 215.168 50.7546L209.56 63.1431C209.277 63.7686 208.266 63.7461 208.019 63.1088L205.633 56.9567C204.164 53.1701 198.263 52.8109 196.22 56.3839C196.07 56.6472 195.679 56.7148 195.427 56.5213L192.777 54.4833C189.486 51.9534 184.587 51.9565 181.301 54.4908L181.147 54.6099C180.888 54.8098 180.497 54.7981 180.254 54.5831C177.177 51.8639 172.008 52.5097 169.904 55.8763L168.748 57.7272C168.425 58.2445 167.578 58.2322 167.275 57.7057L152.764 32.5485C152.755 32.533 152.748 32.5168 152.743 32.5001C151.945 29.975 147.905 29.9469 147.063 32.4607L133.597 72.6463C133.318 73.4779 131.969 73.435 131.759 72.5879L129.789 64.6536C128.014 57.5011 116.415 57.6458 114.869 64.8397C114.731 65.4825 113.741 65.5907 113.429 64.997L104.282 47.5437C101.122 41.5133 92.9268 39.0068 86.2234 42.0203C85.6977 42.2566 85.0587 42.1581 84.6547 41.7784L75.1819 32.8739C71.8002 29.6951 66.143 29.5389 62.5432 32.5249L60.6807 34.0698C58.9356 35.5174 56.3282 35.7945 54.2444 34.7538L52.917 34.0908C51.1536 33.2102 48.9194 33.6899 47.8101 35.1874L46.9249 36.3824C46.2156 37.3398 44.7486 37.5857 43.6918 36.9243C42.1783 35.977 40.0855 36.9333 40.0855 38.5721V39.8138C40.0855 41.8476 37.6083 43.1298 35.6005 42.1352L14.6537 31.758C13.223 31.0492 11.9152 30.162 10.7708 29.1237L1.02673 20.2833C0.1986 19.5319 0.150156 18.3482 0.914709 17.5459L7.48969 10.647Z"
          fill="#D1E6F7"/>
    <path d="M7.48969 10.647C10.7379 7.23874 15.1597 4.86392 20.0794 3.88544L37.1113 0.497952C41.4634 -0.367636 46.0061 -0.100606 50.1901 1.26675L61.8519 5.07793C66.531 6.60713 71.6449 6.75591 76.4278 5.502L92.5639 1.27167C97.3429 0.0187599 102.492 1.62009 105.33 5.24162C108.089 8.76273 113.044 10.3845 117.733 9.30094L140.733 3.98579C145.108 2.97468 149.723 3.12129 154.005 4.4074L179.506 12.0668C181.439 12.6474 183.45 12.9989 185.488 13.1121L215.57 14.7833C219.124 14.9807 222.682 14.449 225.965 13.2297L250.736 4.02949C253.568 2.97753 256.609 2.43567 259.682 2.43567H261.908C268.474 2.43567 274.73 4.90633 279.109 9.22938L281.931 12.014C283.983 14.0399 285.556 16.4079 286.558 18.9788L295.25 41.285C296.036 43.3023 293.233 44.8974 291.48 43.4302L278.871 32.8784C273.466 28.3546 265.485 27.2014 258.73 29.9682C254.708 31.6158 250.142 31.9074 245.893 30.7881L218.095 23.4646C212.113 21.8887 205.664 22.5202 200.218 25.215L167.612 41.349C166.443 41.9273 164.964 41.5082 164.394 40.437L160.281 32.7077C155.033 22.8447 141.938 18.3686 130.545 22.5435L106.173 31.4736C100.587 33.5205 94.3144 33.5489 88.7046 31.5526L69.7849 24.82C65.7658 23.3898 61.3724 22.9878 57.107 23.6599L24.5479 28.7903C17.0106 29.978 9.29716 27.7867 3.95538 22.9403L1.02673 20.2833C0.1986 19.5319 0.150156 18.3482 0.914709 17.5459L7.48969 10.647Z"
          fill="white"/>
</svg>